<?xml version="1.0" encoding="UTF-8" standalone="yes"?>
<svg xmlns="http://www.w3.org/2000/svg" xmlns:xlink="http://www.w3.org/1999/xlink" width="25px" height="25px" viewBox="0 0 25 25" version="1.1" fill="#fff">
  <g id="surface376924">
    <path style=" stroke:none;fill-rule:nonzero;fill:#fff;fill-opacity:1;" d="M 3 1 L 3 23 L 16 23 L 16 22 L 4 22 L 4 2 L 21 2 L 21 14 L 22 14 L 22 1 Z M 7 5.5 L 7 6.5 L 18 6.5 L 18 5.5 Z M 7 12 L 7 13 L 9 13 L 9 12 Z M 10.5 12 L 10.5 13 L 18 13 L 18 12 Z M 7 15 L 7 16 L 9 16 L 9 15 Z M 10.5 15 L 10.5 16 L 15.09375 16 C 15.035156 15.84375 15 15.675781 15 15.5 C 15 15.324219 15.035156 15.15625 15.09375 15 Z M 16.5 15 C 16.199219 15 16 15.199219 16 15.5 C 16 15.800781 16.199219 16 16.5 16 L 17 16 L 17 17.5 C 17 18.199219 17.351562 18.851562 17.953125 19.351562 L 18.75 20 L 18 20.648438 C 17.351562 21.148438 17 21.75 17 22.5 L 17 24 L 16.5 24 C 16.199219 24 16 24.199219 16 24.5 C 16 24.800781 16.199219 25 16.5 25 L 24.5 25 C 24.800781 25 25 24.800781 25 24.5 C 25 24.199219 24.800781 24 24.453125 24 L 24 24 L 24 22.5 C 24 21.800781 23.699219 21.148438 23.046875 20.648438 L 22.296875 20 L 23.046875 19.351562 C 23.699219 18.851562 24 18.199219 24 17.5 L 24 16 L 24.5 16 C 24.800781 16 25 15.800781 25 15.5 C 25 15.199219 24.800781 15 24.5 15 Z M 18 16 L 23 16 L 23 17.5 C 23 17.898438 22.851562 18.25 22.453125 18.601562 L 21.25 19.601562 C 21.101562 19.699219 21.046875 19.851562 21.046875 20 C 21.046875 20.148438 21.101562 20.296875 21.25 20.351562 L 22.453125 21.398438 C 22.851562 21.75 23 22.050781 23 22.5 L 23 24 L 22 24 C 22 23 20.5 22 20.5 22 C 20.5 22 19 23 19 24 L 18 24 L 18 22.5 C 18 22.050781 18.199219 21.75 18.601562 21.398438 L 19.796875 20.398438 C 19.949219 20.300781 20 20.148438 20 20 C 20 19.851562 19.949219 19.703125 19.796875 19.648438 L 18.601562 18.601562 C 18.199219 18.25 18 17.898438 18 17.5 Z M 19 17.5 C 19 18.601562 20.5 19 20.5 19 C 20.5 19 22 18.601562 22 17.5 Z M 7 18 L 7 19 L 9 19 L 9 18 Z M 10.5 18 L 10.5 19 L 16.390625 19 C 16.21875 18.683594 16.101562 18.347656 16.046875 18 Z M 10.5 18 "/>
  </g>
</svg>
