<svg width="24" height="24" xmlns="http://www.w3.org/2000/svg">

 <g>
  <title>background</title>
  <rect fill="none" id="canvas_background" height="402" width="582" y="-1" x="-1"/>
 </g>
 <g>
  <title>Layer 1</title>
  <path id="svg_1" d="m12,9.059l0,-2.559c0,-0.256 -0.098,-0.512 -0.293,-0.708c-0.195,-0.195 -0.451,-0.292 -0.707,-0.292s-0.512,0.097 -0.707,0.292l-6.293,6.208l6.293,6.207c0.195,0.195 0.451,0.293 0.707,0.293s0.512,-0.098 0.707,-0.293s0.293,-0.452 0.293,-0.707l0,-2.489c2.75,0.068 5.755,0.566 8,3.989l0,-1c0,-4.633 -3.5,-8.443 -8,-8.941z"/>
 </g>
</svg>